<svg xmlns="http://www.w3.org/2000/svg" width="121" height="35" viewBox="0 0 121 35">
  <g fill="none" fill-rule="evenodd">
    <path fill="#FFF" d="M27.6903518 10.9122234C32.1069774 11.9222752 35.4020675 15.8754913 35.4020675 20.598317 35.4020675 26.0858275 30.9535613 30.5343338 25.4660508 30.5343338L16.4752522 30.5343338C16.0708986 30.5343338 15.6721865 30.5101799 15.2804799 30.4632364 14.9383326 30.5101139 14.5889663 30.5343338 14.2339431 30.5343338L7.63867184 30.5343338C3.41994988 30.5343338 5.16644435e-16 27.1143839 0 22.8956619-4.70957101e-16 19.0500054 2.84183545 15.868095 6.54002754 15.3354097 6.53949994 15.2901893 6.5392354 15.2449043 6.5392354 15.1995565 6.5392354 9.01421222 11.460826 4 17.5319156 4 22.1123857 4 26.038528 6.85423372 27.6903518 10.9122234zM11.7232087 15.4678054C11.6928252 17.0650258 11.4877817 18.6967008 11.1692483 20.1394548 11.036955 20.7386595 10.8910111 21.2741254 10.7498993 21.691385 10.6874744 21.8759719 10.6283634 22.0300982 10.5768609 22.1451324 10.5555193 22.1928003 10.5368216 22.2307225 10.5221372 22.2572039 10.1964181 22.6708482 10.2607142 23.2855722 10.6725175 23.6243194 11.0843207 23.9630667 11.6876895 23.8975605 12.0201795 23.4780074 12.7486487 22.558787 13.5766967 18.8082557 13.6395213 15.5056438 13.649777 14.9665099 13.2291098 14.5209851 12.6999347 14.5105363 12.1707596 14.5000875 11.7334644 14.9286715 11.7232087 15.4678054zM24.0709422 15.4678054C24.0606864 14.9286715 23.6233913 14.5000875 23.0942161 14.5105363 22.565041 14.5209851 22.1443738 14.9665099 22.1546296 15.5056438 22.2174541 18.8082557 23.0455021 22.558787 23.7739713 23.4780074 24.1064613 23.8975605 24.7098302 23.9630667 25.1216334 23.6243194 25.5334366 23.2855722 25.5977327 22.6708482 25.2720136 22.2572039 25.2573293 22.2307225 25.2386315 22.1928003 25.2172899 22.1451324 25.1657875 22.0300982 25.1066764 21.8759719 25.0442515 21.691385 24.9031398 21.2741254 24.7571958 20.7386595 24.6249025 20.1394548 24.3063691 18.6967008 24.1013256 17.0650258 24.0709422 15.4678054zM16.9681884 12.5001762L16.9681884 25.8178908C16.9681884 26.357126 17.3972502 26.7942624 17.9265246 26.7942624 18.4557991 26.7942624 18.8848609 26.357126 18.8848609 25.8178908L18.8848609 12.5001762C18.8848609 11.960941 18.4557991 11.5238046 17.9265246 11.5238046 17.3972502 11.5238046 16.9681884 11.960941 16.9681884 12.5001762zM44.4177892 24.4417091L44.4177892 16.0549604 46.2448452 16.0549604 46.2448452 24.4417091 44.4177892 24.4417091zM44.2622951 13.9939447C44.2622951 13.3914939 44.7443269 12.9634368 45.3274298 12.9634368 45.9183075 12.9634368 46.4003393 13.3914939 46.4003393 13.9939447 46.4003393 14.5963954 45.9183075 15.0244525 45.3274298 15.0244525 44.7443269 15.0244525 44.2622951 14.5963954 44.2622951 13.9939447zM48.812302 24.4417091L48.812302 17.5373064 47.6538707 17.5373064 47.6538707 16.0549604 48.812302 16.0549604 48.812302 15.2147002C48.812302 13.5579606 49.6441955 12.852459 51.4868009 12.852459 51.906635 12.852459 52.1476509 12.884167 52.2953703 12.9079479L52.2953703 14.2872431C52.1787497 14.2713891 52.0543544 14.2555351 51.8211133 14.2555351 51.0047691 14.2555351 50.6082591 14.5250526 50.6082591 15.3732398L50.6082591 16.0549604 52.2020739 16.0549604 52.2020739 17.5373064 50.6393579 17.5373064 50.6393579 24.4417091 48.812302 24.4417091zM58.0815555 23.4191283C57.7316937 24.0532869 57.0164207 24.5685409 55.8035666 24.5685409 54.2097518 24.5685409 53.1057435 23.5935219 53.1057435 22.0319061 53.1057435 20.5337062 54.12423 19.5824682 56.0212583 19.5745412L58.0737808 19.5745412 58.0737808 18.7976968C58.0737808 17.8781667 57.5451008 17.3629127 56.612136 17.3629127 55.7102701 17.3629127 55.1893648 17.8543857 55.1349418 18.5678142L53.4089571 18.5678142C53.4789294 17.1488842 54.3963447 15.9202017 56.6510096 15.9202017 58.5013896 15.9202017 59.893062 16.8397318 59.893062 18.7422079L59.893062 24.4417091 58.1515279 24.4417091 58.1515279 23.4191283 58.0815555 23.4191283zM56.3788948 23.1654648C57.3351837 23.1654648 58.0737808 22.563014 58.0737808 21.6831188L58.0737808 20.7715157 56.3633454 20.7715157C55.3992819 20.7715157 54.9405742 21.2392077 54.9405742 21.9130014 54.9405742 22.7611886 55.6402977 23.1654648 56.3788948 23.1654648zM61.6985976 24.4417091L61.6985976 16.0549604 63.5023295 16.0549604 63.5023295 17.244008 63.5723018 17.244008C63.8444165 16.6811921 64.598563 15.9202017 65.9591366 15.9202017 67.6384732 15.9202017 68.8357779 16.9982715 68.8357779 19.0513602L68.8357779 24.4417091 67.0009473 24.4417091 67.0009473 19.4397824C67.0009473 18.1159762 66.2468008 17.5373064 65.2749625 17.5373064 64.1165313 17.5373064 63.5334283 18.3854936 63.5334283 19.4714904L63.5334283 24.4417091 61.6985976 24.4417091zM70.6102147 24.4417091L70.6102147 16.0549604 72.4450453 16.0549604 72.4450453 17.1726651 72.5227924 17.1726651C72.7249348 16.6494842 73.3391366 15.9281287 74.4742437 15.9281287 74.7230343 15.9281287 74.9174019 15.9519096 75.0806708 15.9836176L75.0806708 17.6245032C74.9251766 17.5769413 74.6141884 17.5610873 74.3187495 17.5610873 72.9504013 17.5610873 72.4839189 18.4092746 72.4839189 19.5428332L72.4839189 24.4417091 70.6102147 24.4417091zM83.5216382 18.4092746L83.5216382 19.7013729C83.5216382 21.9843442 84.5090259 23.0148521 86.0173189 23.0148521 87.4867384 23.0148521 88.2486596 22.0319061 88.2486596 20.8824935L90.0679408 20.8824935 90.0679408 21.0410332C90.0679408 22.8246045 88.6762684 24.6557377 85.9706707 24.6557377 83.2650729 24.6557377 81.6246099 22.8880203 81.6246099 19.7092999L81.6246099 18.4013476C81.6246099 15.2067732 83.288397 13.4073479 85.9784454 13.4073479 88.5985214 13.4073479 90.0679408 15.2067732 90.0679408 17.1647381L90.0679408 17.3153508 88.2486596 17.3153508C88.2486596 16.1738652 87.4634143 15.0482335 85.9862201 15.0482335 84.5168006 15.0482335 83.5216382 16.1500842 83.5216382 18.4092746zM91.6246858 24.4417091L91.6246858 13.0506336 93.4595165 13.0506336 93.4595165 24.4417091 91.6246858 24.4417091zM98.7636699 15.9122747C101.14273 15.9122747 102.448881 17.6007222 102.448881 19.8995475L102.448881 20.5495602C102.448881 22.9435092 101.150505 24.5843949 98.7636699 24.5843949 96.3690603 24.5843949 95.0629097 22.9435092 95.0629097 20.5574871L95.0629097 19.9074745C95.0629097 17.6086492 96.376835 15.9122747 98.7636699 15.9122747zM98.7636699 17.3866937C97.5119422 17.3866937 96.9132898 18.4489095 96.9132898 19.9154015L96.9132898 20.5654141C96.9132898 22.0001982 97.5041674 23.0941219 98.7636699 23.0941219 100.015398 23.0941219 100.598501 22.0001982 100.598501 20.5654141L100.598501 19.9154015C100.598501 18.4409825 100.007623 17.3866937 98.7636699 17.3866937zM110.995086 16.0549604L110.995086 24.4417091 109.199129 24.4417091 109.199129 23.2526616 109.113608 23.2526616C108.849268 23.9106012 108.087346 24.5685409 106.742322 24.5685409 105.055211 24.5685409 103.89678 23.5776679 103.89678 21.619703L103.89678 16.0549604 105.739385 16.0549604 105.739385 21.112376C105.739385 22.54716 106.54018 22.9672902 107.426496 22.9672902 108.421659 22.9672902 109.160256 22.3093505 109.160256 21.0885951L109.160256 16.0549604 110.995086 16.0549604zM115.747236 15.9360557C116.851244 15.9360557 117.714236 16.4830175 118.095197 17.2598619L118.157395 17.2598619 118.157395 13.0506336 120 13.0506336 120 24.4417091 118.204043 24.4417091 118.204043 23.1575378 118.134071 23.1575378C117.722011 24.021579 116.859019 24.5526869 115.747236 24.5526869 113.702488 24.5526869 112.559606 23.0069251 112.559606 20.605049L112.559606 19.8757666C112.559606 17.5135254 113.749136 15.9360557 115.747236 15.9360557zM116.260366 17.4580365C115.203006 17.4580365 114.43331 18.2824428 114.43331 19.9391824L114.43331 20.5495602C114.43331 22.2142267 115.203006 23.0307061 116.275916 23.0307061 117.442122 23.0307061 118.172944 22.1587378 118.172944 20.5574871L118.172944 19.9391824C118.172944 18.4092746 117.434347 17.4580365 116.260366 17.4580365z"/>
  </g>
</svg>
